name Walk8.mot
datacolumns 19
datarows 12
range 3.93300000 3.94400000
endheader

                time	   L_ground_force_vx	   L_ground_force_vy	   L_ground_force_vz	   L_ground_force_px	   L_ground_force_py	   L_ground_force_pz	   R_ground_force_vx	   R_ground_force_vy	   R_ground_force_vz	   R_ground_force_px	   R_ground_force_py	   R_ground_force_pz	   L_ground_torque_x	   L_ground_torque_y	   L_ground_torque_z	   R_ground_torque_x	   R_ground_torque_y	   R_ground_torque_z	
          3.93300000	         17.47728940	        969.56314966	         69.67481661	         -0.35421655	          0.00000000	         -0.06560398	          0.00000000	          0.00000000	          0.00000000	          0.00000000	          0.00000000	          0.00000000	          0.00000000	          0.52494798	          0.00000000	          0.00000000	          0.00000000	          0.00000000	
          3.93400000	         17.97294894	        969.35979097	         69.86701066	         -0.35376650	          0.00000000	         -0.06562967	          0.00000000	          0.00000000	          0.00000000	          0.00000000	          0.00000000	          0.00000000	          0.00000000	          0.52353141	          0.00000000	          0.00000000	          0.00000000	          0.00000000	
          3.93500000	         18.46060824	        969.25804215	         70.02113707	         -0.35330974	          0.00000000	         -0.06562722	          0.00000000	          0.00000000	          0.00000000	          0.00000000	          0.00000000	          0.00000000	          0.00000000	          0.53843199	          0.00000000	          0.00000000	          0.00000000	          0.00000000	
          3.93600000	         18.90476012	        969.22489073	         70.16153836	         -0.35285601	          0.00000000	         -0.06561932	          0.00000000	          0.00000000	          0.00000000	          0.00000000	          0.00000000	          0.00000000	          0.00000000	          0.57189567	          0.00000000	          0.00000000	          0.00000000	          0.00000000	
          3.93700000	         19.29597687	        969.22097162	         70.30000501	         -0.35241641	          0.00000000	         -0.06563552	          0.00000000	          0.00000000	          0.00000000	          0.00000000	          0.00000000	          0.00000000	          0.00000000	          0.62429285	          0.00000000	          0.00000000	          0.00000000	          0.00000000	
          3.93800000	         19.64413218	        969.22469831	         70.44361293	         -0.35199970	          0.00000000	         -0.06567719	          0.00000000	          0.00000000	          0.00000000	          0.00000000	          0.00000000	          0.00000000	          0.00000000	          0.69004390	          0.00000000	          0.00000000	          0.00000000	          0.00000000	
          3.93900000	         19.95613595	        969.22265748	         70.60062673	         -0.35160704	          0.00000000	         -0.06572095	          0.00000000	          0.00000000	          0.00000000	          0.00000000	          0.00000000	          0.00000000	          0.00000000	          0.75165591	          0.00000000	          0.00000000	          0.00000000	          0.00000000	
          3.94000000	         20.23739223	        969.20490712	         70.77597225	         -0.35123479	          0.00000000	         -0.06575426	          0.00000000	          0.00000000	          0.00000000	          0.00000000	          0.00000000	          0.00000000	          0.00000000	          0.78543271	          0.00000000	          0.00000000	          0.00000000	          0.00000000	
          3.94100000	         20.50565942	        969.18625847	         70.96822725	         -0.35087809	          0.00000000	         -0.06578982	          0.00000000	          0.00000000	          0.00000000	          0.00000000	          0.00000000	          0.00000000	          0.00000000	          0.77712533	          0.00000000	          0.00000000	          0.00000000	          0.00000000	
          3.94200000	         20.78929632	        969.19590242	         71.16707889	         -0.35052920	          0.00000000	         -0.06584054	          0.00000000	          0.00000000	          0.00000000	          0.00000000	          0.00000000	          0.00000000	          0.00000000	          0.73040498	          0.00000000	          0.00000000	          0.00000000	          0.00000000	
          3.94300000	         21.11235681	        969.23891022	         71.35441375	         -0.35017491	          0.00000000	         -0.06589410	          0.00000000	          0.00000000	          0.00000000	          0.00000000	          0.00000000	          0.00000000	          0.00000000	          0.66193760	          0.00000000	          0.00000000	          0.00000000	          0.00000000	
          3.94400000	         21.47508679	        969.30367049	         71.50896901	         -0.34979691	          0.00000000	         -0.06592697	          0.00000000	          0.00000000	          0.00000000	          0.00000000	          0.00000000	          0.00000000	          0.00000000	          0.59470387	          0.00000000	          0.00000000	          0.00000000	          0.00000000	
